<svg xmlns="http://www.w3.org/2000/svg" xmlns:xlink="http://www.w3.org/1999/xlink" version="1.1" x="0px" y="0px" viewBox="0 0 26 32.5" style="enable-background:new 0 0 26 26;" xml:space="preserve"><rect x="7" y="10" transform="matrix(-3.912510e-07 1 -1 -3.912510e-07 18.5 2.5)" width="2" height="1"/><rect x="17" y="10" transform="matrix(-3.912510e-07 1 -1 -3.912510e-07 28.5 -7.5)" width="2" height="1"/><rect x="5.5" y="12.5" transform="matrix(-3.912513e-07 1 -1 -3.912513e-07 20 6)" width="3" height="1"/><rect x="17.5" y="12.5" transform="matrix(-3.912513e-07 1 -1 -3.912513e-07 32 -6)" width="3" height="1"/><rect x="7" y="15" transform="matrix(-3.912510e-07 1 -1 -3.912510e-07 23.5 7.5)" width="2" height="1"/><rect x="17" y="15" transform="matrix(-3.912510e-07 1 -1 -3.912510e-07 33.5 -2.5)" width="2" height="1"/><rect x="8.5" y="16.5" transform="matrix(-3.912501e-07 1 -1 -3.912501e-07 26 8)" width="1" height="1"/><rect x="8.5" y="8.5" transform="matrix(-3.912501e-07 1 -1 -3.912501e-07 18 3.912411e-07)" width="1" height="1"/><rect x="15" y="7" transform="matrix(-3.912519e-07 1 -1 -3.912519e-07 23.5 -7.5)" width="1" height="2"/><rect x="10" y="7" transform="matrix(-3.912519e-07 1 -1 -3.912519e-07 18.5 -2.5)" width="1" height="2"/><rect x="15" y="17" transform="matrix(-3.912519e-07 1 -1 -3.912519e-07 33.5 2.5)" width="1" height="2"/><rect x="12.5" y="17.5" transform="matrix(-3.912501e-07 1 -1 -3.912501e-07 32 6)" width="1" height="3"/><rect x="12.5" y="5.5" transform="matrix(-3.912501e-07 1 -1 -3.912501e-07 20 -6)" width="1" height="3"/><rect x="10" y="17" transform="matrix(-3.912519e-07 1 -1 -3.912519e-07 28.5 7.5)" width="1" height="2"/><rect x="16.5" y="8.5" transform="matrix(-3.912501e-07 1 -1 -3.912501e-07 26 -8)" width="1" height="1"/><rect x="16.5" y="16.5" transform="matrix(-3.912501e-07 1 -1 -3.912501e-07 34 9.781259e-06)" width="1" height="1"/><rect x="12.5" y="15" transform="matrix(-3.912501e-07 1 -1 -3.912501e-07 28.5 2.5)" width="1" height="1"/><rect x="13.5" y="14" transform="matrix(-3.912519e-07 1 -1 -3.912519e-07 28.5 0.5)" width="1" height="1"/><rect x="14.5" y="13" transform="matrix(-3.912501e-07 1 -1 -3.912501e-07 28.5 -1.5)" width="1" height="1"/><rect x="15.5" y="12" transform="matrix(-3.912501e-07 1 -1 -3.912501e-07 28.5 -3.5)" width="1" height="1"/><rect x="11.5" y="14" transform="matrix(-3.912519e-07 1 -1 -3.912519e-07 26.5 2.5)" width="1" height="1"/><rect x="10.5" y="13" transform="matrix(-3.912501e-07 1 -1 -3.912501e-07 24.5 2.5)" width="1" height="1"/><rect x="9.5" y="12" transform="matrix(-3.912501e-07 1 -1 -3.912501e-07 22.5 2.5)" width="1" height="1"/><text x="0" y="41" fill="#000000" font-size="5px" font-weight="bold" font-family="'Helvetica Neue', Helvetica, Arial-Unicode, Arial, Sans-serif">Created by Yafet bouchagra</text><text x="0" y="46" fill="#000000" font-size="5px" font-weight="bold" font-family="'Helvetica Neue', Helvetica, Arial-Unicode, Arial, Sans-serif">from the Noun Project</text></svg>